<svg xmlns="http://www.w3.org/2000/svg" width="31" height="32.017" viewBox="0 0 31 32.017">
  <g id="Group_20882" data-name="Group 20882" transform="translate(0 -0.994)">
    <g id="Group_20699" data-name="Group 20699" transform="translate(11.563 22.222)">
      <g id="Rectangle_771" data-name="Rectangle 771" transform="translate(0 0)" fill="#ffd8b3" stroke="#dd272d" stroke-width="1.5">
        <rect width="7.873" height="10.789" rx="3.937" stroke="none"/>
        <rect x="0.75" y="0.75" width="6.373" height="9.289" rx="3.187" fill="none"/>
      </g>
    </g>
    <g id="Group_20700" data-name="Group 20700" transform="translate(13.957 0.994)">
      <g id="Rectangle_773" data-name="Rectangle 773" transform="translate(3.086 4.228) rotate(180)" fill="none" stroke="#dd272d" stroke-width="1.5">
        <rect width="3.086" height="4.228" rx="1.543" stroke="none"/>
        <rect x="0.75" y="0.75" width="1.586" height="2.728" rx="0.793" fill="none"/>
      </g>
      <g id="Rectangle_774" data-name="Rectangle 774" transform="translate(3.086 2.914) rotate(180)" fill="none" stroke="#dd272d" stroke-width="1.5">
        <rect width="3.086" height="2.914" rx="1.457" stroke="none"/>
        <rect x="0.75" y="0.75" width="1.586" height="1.414" rx="0.707" fill="none"/>
      </g>
    </g>
    <g id="Path_46669" data-name="Path 46669" transform="translate(-130.019 -538.28)" fill="#ffd8b3">
      <path d="M 160.2694702148438 567.2816162109375 L 130.7694396972656 567.2816162109375 L 130.7707672119141 565.7928466796875 C 130.7711486816406 565.3281860351562 130.9873504638672 564.8934936523438 131.3639373779297 564.6000366210938 L 132.7498016357422 563.5205078125 C 133.9524230957031 562.5841064453125 134.6422271728516 561.185791015625 134.6422271728516 559.6841430664062 L 134.6422271728516 551.1474609375 C 134.6422271728516 547.9793701171875 136.3461456298828 545.0492553710938 139.0890502929688 543.5005493164062 C 141.1827239990234 542.3180541992188 143.3453674316406 541.7185668945312 145.5169830322266 541.7185668945312 C 148.4314422607422 541.7185668945312 151.16650390625 542.816650390625 153.2183685302734 544.810546875 C 155.2642517089844 546.7988891601562 156.3909759521484 549.4464721679688 156.3909759521484 552.2657470703125 L 156.3909759521484 559.6829833984375 C 156.3909759521484 561.1853637695312 157.0812530517578 562.5841674804688 158.2848358154297 563.520751953125 L 159.6759490966797 564.603759765625 C 160.0532684326172 564.8971557617188 160.2694702148438 565.3321533203125 160.2694702148438 565.7974243164062 L 160.2694702148438 567.2816162109375 Z" stroke="none"/>
      <path d="M 159.5194702148438 566.5316162109375 L 159.5194702148438 565.7974243164062 C 159.5194702148438 565.5652465820312 159.4088287353516 565.3461303710938 159.2152099609375 565.195556640625 L 157.8242340087891 564.1126098632812 C 156.4367523193359 563.0328979492188 155.6409759521484 561.4183959960938 155.6409759521484 559.6829833984375 L 155.6409759521484 552.2657470703125 C 155.6409759521484 549.65087890625 154.594970703125 547.1942749023438 152.6956939697266 545.3484497070312 C 150.7845916748047 543.4913330078125 148.2351531982422 542.4685668945312 145.5169830322266 542.4685668945312 C 143.4761810302734 542.4685668945312 141.4376373291016 543.0354614257812 139.4577789306641 544.1536254882812 C 136.9500579833984 545.569580078125 135.3922271728516 548.2494506835938 135.3922271728516 551.1474609375 L 135.3922271728516 559.6841430664062 C 135.3922271728516 561.4187622070312 134.5970001220703 563.0327758789062 133.210693359375 564.1121826171875 L 131.8249206542969 565.191650390625 C 131.6318206787109 565.3421020507812 131.5209503173828 565.5614624023438 131.5207672119141 565.7935180664062 L 131.5201110839844 566.5316162109375 L 159.5194702148438 566.5316162109375 M 160.767578125 568.0316162109375 L 130.2708892822266 568.0316162109375 C 130.1314697265625 568.0316162109375 130.0189971923828 567.922119140625 130.0189971923828 567.7867431640625 L 130.0207672119141 565.7921752929688 C 130.0213470458984 565.0985717773438 130.3458709716797 564.4425048828125 130.9029541015625 564.0084228515625 L 132.2889251708984 562.9288330078125 C 133.3023376464844 562.1397705078125 133.8922271728516 560.9459838867188 133.8922271728516 559.6841430664062 L 133.8922271728516 551.1474609375 C 133.8922271728516 547.7498779296875 135.6970520019531 544.554443359375 138.7202911376953 542.8474731445312 C 144.4352569580078 539.6197509765625 150.2175598144531 540.8486938476562 153.7410583496094 544.272705078125 C 155.8434448242188 546.31591796875 157.1409759521484 549.1399536132812 157.1409759521484 552.2657470703125 L 157.1409759521484 559.6829833984375 C 157.1409759521484 560.9453125 157.7314453125 562.1397705078125 158.7454376220703 562.9288330078125 L 160.1366882324219 564.011962890625 C 160.6949462890625 564.446044921875 161.0194702148438 565.103271484375 161.0194702148438 565.7974243164062 L 161.0194702148438 567.7867431640625 C 161.0194702148438 567.922119140625 160.9069976806641 568.0316162109375 160.767578125 568.0316162109375 Z" stroke="none" fill="#dd272d"/>
    </g>
  </g>
</svg>
