<svg xmlns="http://www.w3.org/2000/svg" width="36.021" height="24.725" viewBox="0 0 36.021 24.725">
  <g id="Group_20881" data-name="Group 20881" transform="translate(-8.739 -139.36)">
    <path id="Path_46698" data-name="Path 46698" d="M9.608,140.751H43.735v22.126H10.608l-1-1.25Z" fill="#ffd8b3"/>
    <path id="wallet:3" d="M36.11,149.62a1.77,1.77,0,1,0,1.77,1.77A1.767,1.767,0,0,0,36.11,149.62ZM10.86,139.36a2.009,2.009,0,0,0-.25.01,1.553,1.553,0,0,0-.21.04l16.35-.03,14.24-.02Zm25.25,10.26a1.77,1.77,0,1,0,1.77,1.77A1.767,1.767,0,0,0,36.11,149.62Zm0,0a1.77,1.77,0,1,0,1.77,1.77A1.767,1.767,0,0,0,36.11,149.62Zm0,0a1.77,1.77,0,1,0,1.77,1.77A1.767,1.767,0,0,0,36.11,149.62Zm8.63,11.72V142.08c0-1.6-.55-2.5-1.65-2.67a1.417,1.417,0,0,1-.2-.04c-.08,0-.17-.01-.26-.01H10.86a2.009,2.009,0,0,0-.25.01,1.553,1.553,0,0,0-.21.04c-1.09.18-1.64,1.08-1.64,2.67v19.26a2.551,2.551,0,0,0-.01.55.487.487,0,0,0,.01.12.235.235,0,0,0,.02.08,1.419,1.419,0,0,0,.05.22,2.74,2.74,0,0,0,.15.4c.06.11.12.21.18.31a2.159,2.159,0,0,0,.27.33c.07.07.14.13.22.2.05.04.11.08.17.12a.473.473,0,0,0,.12.07,1.619,1.619,0,0,0,.18.1.313.313,0,0,0,.1.05,1.265,1.265,0,0,0,.18.06,1.648,1.648,0,0,0,.45.11,2.431,2.431,0,0,0,.66,0H41.98a2.37,2.37,0,0,0,1.4-.22,1.739,1.739,0,0,0,.19-.1c.03-.02.07-.04.11-.07a.906.906,0,0,0,.16-.11,2.4,2.4,0,0,0,.89-1.55,2.186,2.186,0,0,0,.03-.36C44.76,161.55,44.75,161.44,44.74,161.34Zm-1.65-7.32H35.91a2.559,2.559,0,0,1-1.82-.77,2.638,2.638,0,0,1,1.82-4.49h7.18Zm0-6.91H35.91a4.286,4.286,0,0,0-2.99,7.29,4.167,4.167,0,0,0,2.99,1.25h7.18v5.69c0,.71,0,1.07-1.11,1.07H11.51c-1.11,0-1.11-.36-1.11-1.07v-19.9a.445.445,0,0,1,.12-.29c.01-.01.01-.02.02-.02a.487.487,0,0,1,.33-.13H42.63a.487.487,0,0,1,.12.01.269.269,0,0,1,.25.19,2.608,2.608,0,0,1,.09.88Zm-8.75,4.28a1.77,1.77,0,1,0,1.77-1.77A1.767,1.767,0,0,0,34.34,151.39Zm1.77-1.77a1.77,1.77,0,1,0,1.77,1.77A1.767,1.767,0,0,0,36.11,149.62Zm0,0a1.77,1.77,0,1,0,1.77,1.77A1.767,1.767,0,0,0,36.11,149.62Z" fill="#dd272d"/>
  </g>
</svg>
