<svg xmlns="http://www.w3.org/2000/svg" xmlns:xlink="http://www.w3.org/1999/xlink" width="27.345" height="27.346" viewBox="0 0 27.345 27.346">
  <defs>
    <radialGradient id="radial-gradient" cx="0.079" cy="0.991" r="1.18" gradientTransform="translate(0)" gradientUnits="objectBoundingBox">
      <stop offset="0" stop-color="#f7e000"/>
      <stop offset="0.045" stop-color="#f6c700"/>
      <stop offset="0.1" stop-color="#f6af00"/>
      <stop offset="0.135" stop-color="#f6a700"/>
      <stop offset="0.317" stop-color="#e66149"/>
      <stop offset="0.355" stop-color="#e3534d"/>
      <stop offset="0.427" stop-color="#de3159"/>
      <stop offset="0.505" stop-color="#d70568"/>
      <stop offset="0.661" stop-color="#bc0090"/>
      <stop offset="0.756" stop-color="#a113a5"/>
      <stop offset="0.871" stop-color="#8528bc"/>
      <stop offset="1" stop-color="#5456da"/>
    </radialGradient>
  </defs>
  <g id="Group_12960" data-name="Group 12960" transform="translate(0 0)">
    <path id="Union_2" data-name="Union 2" d="M0,13.674C0,2.733,2.733,0,13.671,0S27.345,2.733,27.345,13.674,24.609,27.346,13.671,27.346,0,24.611,0,13.674Z" transform="translate(0 0)" fill="url(#radial-gradient)"/>
    <g id="Group_12959" data-name="Group 12959" transform="translate(5.102 5.104)">
      <path id="Path_2322" data-name="Path 2322" d="M76.9,67.973H69.971a5.112,5.112,0,0,0-5.107,5.1V80a5.111,5.111,0,0,0,5.107,5.1H76.9A5.111,5.111,0,0,0,82,80V73.078A5.112,5.112,0,0,0,76.9,67.973ZM80.277,80A3.381,3.381,0,0,1,76.9,83.386H69.971A3.381,3.381,0,0,1,66.589,80V73.078A3.382,3.382,0,0,1,69.971,69.7H76.9a3.382,3.382,0,0,1,3.379,3.381Z" transform="translate(-64.864 -67.973)" fill="#fff"/>
      <path id="Path_2323" data-name="Path 2323" d="M71.387,70.064A4.432,4.432,0,1,0,75.819,74.5,4.436,4.436,0,0,0,71.387,70.064Zm0,7.141A2.709,2.709,0,1,1,74.1,74.5,2.709,2.709,0,0,1,71.387,77.2Z" transform="translate(-62.818 -65.927)" fill="#fff"/>
      <path id="Path_2324" data-name="Path 2324" d="M71.965,69.544A1.062,1.062,0,1,0,73.026,70.6,1.061,1.061,0,0,0,71.965,69.544Z" transform="translate(-58.954 -66.436)" fill="#fff"/>
    </g>
  </g>
</svg>
