<svg xmlns="http://www.w3.org/2000/svg" xmlns:xlink="http://www.w3.org/1999/xlink" width="52.253" height="52.254" viewBox="0 0 52.253 52.254">
  <defs>
    <linearGradient id="linear-gradient" x1="0.115" y1="0.904" x2="0.915" y2="0.103" gradientUnits="objectBoundingBox">
      <stop offset="0" stop-color="#3fbcff"/>
      <stop offset="0.098" stop-color="#3fb3ff"/>
      <stop offset="0.463" stop-color="#3f95ff"/>
      <stop offset="0.777" stop-color="#3f83ff"/>
      <stop offset="1" stop-color="#3f7cff"/>
    </linearGradient>
  </defs>
  <g id="Group_21049" data-name="Group 21049" transform="translate(0 0.001)">
    <path id="Path_46744" data-name="Path 46744" d="M49.858,10.664H23.731A13.063,13.063,0,0,0,10.668,23.727V49.854A13.063,13.063,0,0,0,23.731,62.917H49.858A13.063,13.063,0,0,0,62.921,49.854V23.727A13.063,13.063,0,0,0,49.858,10.664Z" transform="translate(-10.668 -10.664)" fill="url(#linear-gradient)"/>
    <g id="Group_21048" data-name="Group 21048" transform="translate(12.147 19.245)">
      <path id="Path_46892" data-name="Path 46892" d="M879.662,984.192v11.5c-.878,0-1.731.024-2.582-.01-.483-.019-.733-.388-.734-.976,0-1.917,0-3.834,0-5.751,0-1.241,0-2.483,0-3.724,0-.744.287-1.032,1.02-1.039S878.859,984.192,879.662,984.192Z" transform="translate(-878.153 -983.065)" fill="#fff" stroke="rgba(0,0,0,0)" stroke-width="1" opacity="0.5"/>
      <path id="Path_46893" data-name="Path 46893" d="M1102.16,995.684v-11.5c.853,0,1.672-.017,2.49.006a.784.784,0,0,1,.814.848q.014,4.9,0,9.8a.759.759,0,0,1-.766.834C1103.863,995.708,1103.025,995.684,1102.16,995.684Z" transform="translate(-1079.696 -983.055)" fill="#fff" stroke="rgba(0,0,0,0)" stroke-width="1" opacity="0.5"/>
      <g id="Group_21047" data-name="Group 21047" transform="translate(2.976 -8.508)" opacity="0.9">
        <path id="Path_46890" data-name="Path 46890" d="M922.168,968.97V957.461c.453,0,.871-.009,1.289,0a.921.921,0,0,0,.917-.564c.227-.457.445-.92.689-1.368a2.414,2.414,0,0,1,2.221-1.351c2.064-.015,4.127-.009,6.191,0,.715,0,1.019.348.98,1.07,0,.036,0,.073-.006.109-.118,1.2-.219,1.293-1.408,1.3-.895,0-1.79-.015-2.684.022a2.963,2.963,0,0,0-2.63,1.613c-1.032,1.95-2,3.934-2.979,5.912a.819.819,0,0,0,.468,1.208,5,5,0,0,0,7.01-1.9.543.543,0,0,1,.908-.108c1.88,1.863,3.751,3.735,5.721,5.7a7.639,7.639,0,0,1-1.137.6c-2.307.746-4.623,1.464-6.936,2.19a2.428,2.428,0,0,1-2.572-.619c-.683-.66-1.334-1.353-2.029-2a1.173,1.173,0,0,0-.706-.29C924.382,968.953,923.289,968.97,922.168,968.97Z" transform="translate(-922.168 -945.961)" fill="#fff" stroke="rgba(0,0,0,0)" stroke-width="1"/>
        <path id="Path_46891" data-name="Path 46891" d="M976.255,991.842v9.754c-.2-.188-.338-.311-.469-.442-1.8-1.794-3.617-3.563-5.373-5.4-.849-.886-1.869-.645-2.868-.646-.092,0-.205.182-.272.3-.188.333-.337.689-.538,1.014a3.218,3.218,0,0,1-4.058,1.263c.1-.209.185-.42.287-.625q1.06-2.13,2.124-4.259a1.645,1.645,0,0,1,1.56-1.009q4.657,0,9.313,0A1.986,1.986,0,0,1,976.255,991.842Z" transform="translate(-958.238 -979.461)" fill="#fff" stroke="rgba(0,0,0,0)" stroke-width="1"/>
        <path id="Path_46894" data-name="Path 46894" d="M998.455,881.3c0,.419.022.839-.006,1.256a.792.792,0,0,1-.8.795.78.78,0,0,1-.809-.788q-.043-1.255,0-2.513a.8.8,0,0,1,.8-.8.823.823,0,0,1,.817.792.879.879,0,0,1,.007.109q0,.574,0,1.147Z" transform="translate(-988.634 -879.251)" fill="#fff" stroke="rgba(0,0,0,0)" stroke-width="1"/>
        <path id="Path_46895" data-name="Path 46895" d="M938.323,908.205a4.721,4.721,0,0,1,.711.446c.5.473.99.966,1.471,1.463a.84.84,0,0,1,.073,1.255.821.821,0,0,1-1.213-.076,17.639,17.639,0,0,1-1.526-1.559,1.2,1.2,0,0,1-.177-.934C937.721,908.571,938.072,908.417,938.323,908.205Z" transform="translate(-935.937 -905.032)" fill="#fff" stroke="rgba(0,0,0,0)" stroke-width="1"/>
        <path id="Path_46896" data-name="Path 46896" d="M1043.149,912.4c-.193-.146-.512-.271-.6-.49a.988.988,0,0,1,.039-.849,20.734,20.734,0,0,1,1.843-1.857.7.7,0,0,1,.992.078.713.713,0,0,1,.114,1.032c-.591.664-1.244,1.273-1.885,1.891C1043.554,912.3,1043.386,912.316,1043.149,912.4Z" transform="translate(-1029.288 -905.771)" fill="#fff" stroke="rgba(0,0,0,0)" stroke-width="1"/>
      </g>
      <rect id="Rectangle_1776" data-name="Rectangle 1776" width="52.242" height="52.253" rx="13" transform="translate(-12.137 -19.246)" style="mix-blend-mode: color;isolation: isolate"/>
    </g>
  </g>
</svg>
