<svg id="Group_20943" data-name="Group 20943" xmlns="http://www.w3.org/2000/svg" xmlns:xlink="http://www.w3.org/1999/xlink" width="52.333" height="52.254" viewBox="0 0 52.333 52.254">
  <defs>
    <linearGradient id="linear-gradient" x1="0.115" y1="0.904" x2="0.915" y2="0.103" gradientUnits="objectBoundingBox">
      <stop offset="0" stop-color="#3fbcff"/>
      <stop offset="0.098" stop-color="#3fb3ff"/>
      <stop offset="0.463" stop-color="#3f95ff"/>
      <stop offset="0.777" stop-color="#3f83ff"/>
      <stop offset="1" stop-color="#3f7cff"/>
    </linearGradient>
  </defs>
  <path id="Path_46744" data-name="Path 46744" d="M49.858,10.664H23.731A13.063,13.063,0,0,0,10.668,23.727V49.854A13.063,13.063,0,0,0,23.731,62.917H49.858A13.063,13.063,0,0,0,62.921,49.854V23.727A13.063,13.063,0,0,0,49.858,10.664Z" transform="translate(-10.668 -10.664)" fill="url(#linear-gradient)"/>
  <g id="Group_21051" data-name="Group 21051" transform="translate(14 14)">
    <path id="Path_46897" data-name="Path 46897" d="M1318.636,789.875q0-4.237,0-8.474a3.1,3.1,0,0,1,3.342-3.324q8.453,0,16.907,0a3.1,3.1,0,0,1,3.347,3.365q0,8.429,0,16.856a3.107,3.107,0,0,1-3.389,3.37H1322.03a3.114,3.114,0,0,1-3.394-3.411Q1318.635,794.066,1318.636,789.875Zm11.815.75h5.893c.878,0,1.292-.308,1.287-.951s-.421-.935-1.3-.935h-11.693a3.938,3.938,0,0,0-.505.018.9.9,0,0,0-.8.911.926.926,0,0,0,1.05.954C1326.4,790.628,1328.426,790.624,1330.451,790.625Zm.015,2.553h-5.847c-.138,0-.277,0-.414.007a.913.913,0,0,0-.881.889.87.87,0,0,0,.833.969c4.219.015,8.439.007,12.659.006a.278.278,0,0,0,.046-.006.938.938,0,0,0-.043-1.853,3.8,3.8,0,0,0-.46-.012Zm1.442-6.611c1.52,0,3.04,0,4.56,0a1.763,1.763,0,0,0,.586-.077.915.915,0,0,0,.566-1.043.951.951,0,0,0-1.052-.763q-4.629-.008-9.258,0a.963.963,0,0,0-1.081.939c0,.57.433.944,1.119.945C1328.869,786.569,1330.389,786.566,1331.909,786.566Z" transform="translate(-1318.636 -778.076)" fill="#fff" stroke="rgba(0,0,0,0)" stroke-width="1" opacity="0.5"/>
    <g id="Group_21051-2" data-name="Group 21051" transform="translate(4.688 6.6)">
      <path id="Path_46898" data-name="Path 46898" d="M1376.656,895.7c-2.026,0-4.051,0-6.077,0a.926.926,0,0,1-1.05-.954.9.9,0,0,1,.8-.911,3.952,3.952,0,0,1,.506-.018h11.693c.884,0,1.3.3,1.3.935s-.409.951-1.287.951Z" transform="translate(-1369.528 -889.75)" fill="#ecf3ff" stroke="rgba(0,0,0,0)" stroke-width="1"/>
      <path id="Path_46899" data-name="Path 46899" d="M1376.665,942h5.893a3.794,3.794,0,0,1,.46.013.938.938,0,0,1,.043,1.853.267.267,0,0,1-.046.006c-4.22,0-8.439.009-12.659-.006a.87.87,0,0,1-.833-.97.913.913,0,0,1,.881-.889c.137-.011.276-.007.414-.007Z" transform="translate(-1369.522 -933.495)" fill="#ecf3ff" stroke="rgba(0,0,0,0)" stroke-width="1"/>
      <path id="Path_46900" data-name="Path 46900" d="M1406.749,851.614c-1.52,0-3.04,0-4.56,0-.686,0-1.121-.376-1.119-.945a.963.963,0,0,1,1.081-.939q4.629-.009,9.258,0a.951.951,0,0,1,1.052.763.914.914,0,0,1-.566,1.043,1.764,1.764,0,0,1-.586.077C1409.788,851.617,1408.268,851.614,1406.749,851.614Z" transform="translate(-1398.164 -849.724)" fill="#ecf3ff" stroke="rgba(0,0,0,0)" stroke-width="1"/>
    </g>
  </g>
  <rect id="Rectangle_1765" data-name="Rectangle 1765" width="52.333" height="52.25" rx="13" transform="translate(0 0.004)" style="mix-blend-mode: color;isolation: isolate"/>
</svg>
