<svg xmlns="http://www.w3.org/2000/svg" width="27.345" height="27.346" viewBox="0 0 27.345 27.346">
  <g id="Group_12970" data-name="Group 12970" transform="translate(0 0)">
    <g id="Group_12968" data-name="Group 12968" transform="translate(0 0)">
      <path id="Union_1" data-name="Union 1" d="M0,13.674C0,2.733,2.733,0,13.674,0S27.345,2.733,27.345,13.674,24.611,27.346,13.674,27.346,0,24.611,0,13.674Z" transform="translate(0)" fill="#22004a"/>
      <g id="Group_12967" data-name="Group 12967" transform="translate(5.986 4.987)">
        <path id="Path_2309" data-name="Path 2309" d="M180.113,71.17a6.821,6.821,0,0,0,3.98,1.273V69.589a4.038,4.038,0,0,1-.835-.087v2.247a6.825,6.825,0,0,1-3.981-1.273V76.3a5.28,5.28,0,0,1-8.217,4.384A5.279,5.279,0,0,0,180.113,77V71.17Zm1.031-2.88a3.972,3.972,0,0,1-1.031-2.329v-.368h-.792a4,4,0,0,0,1.823,2.7ZM172.9,78.448a2.413,2.413,0,0,1,1.922-3.875,2.433,2.433,0,0,1,.733.113V71.768a5.425,5.425,0,0,0-.836-.048v2.272a2.414,2.414,0,0,0-1.819,4.456Z" transform="translate(-168.72 -64.899)" fill="#ee1d52" fill-rule="evenodd"/>
        <path id="Path_2310" data-name="Path 2310" d="M179.177,70.476a6.826,6.826,0,0,0,3.981,1.273V69.5a3.993,3.993,0,0,1-2.113-1.211,4,4,0,0,1-1.823-2.7h-2.08V77a3.417,3.417,0,1,1-2.518-3V71.721a4.941,4.941,0,1,0,4.554,4.58Z" transform="translate(-168.62 -64.899)" fill="#fff" fill-rule="evenodd"/>
        <path id="Path_2311" data-name="Path 2311" d="M183.1,69.455v-.608a3.98,3.98,0,0,1-2.113-.6A3.987,3.987,0,0,0,183.1,69.455Zm-3.937-3.908c-.019-.109-.034-.217-.044-.328v-.367h-2.873v11.4a2.415,2.415,0,0,1-3.5,2.148,2.415,2.415,0,0,0,4.337-1.452v-11.4Zm-4.6,6.127v-.647a5.2,5.2,0,0,0-.724-.049,5.276,5.276,0,0,0-2.939,9.659,5.275,5.275,0,0,1,3.663-8.963Z" transform="translate(-168.564 -64.853)" fill="#69c9d0" fill-rule="evenodd"/>
      </g>
    </g>
  </g>
</svg>
