<svg xmlns="http://www.w3.org/2000/svg" width="27.346" height="27.346" viewBox="0 0 27.346 27.346">
  <g id="Group_12963" data-name="Group 12963" transform="translate(0 0)">
    <path id="Union_3" data-name="Union 3" d="M0,13.674C0,2.733,2.735,0,13.672,0S27.346,2.733,27.346,13.674,24.611,27.346,13.672,27.346,0,24.611,0,13.674Z" transform="translate(0 0)" fill="#34aaf3"/>
    <path id="Path_2326" data-name="Path 2326" d="M105.793,70.689a5.558,5.558,0,0,1-.981.33,3.035,3.035,0,0,0,.807-1.286h0a.16.16,0,0,0-.233-.188h0a5.667,5.667,0,0,1-1.5.621.363.363,0,0,1-.093.012.394.394,0,0,1-.263-.1,3.064,3.064,0,0,0-2.03-.766,3.29,3.29,0,0,0-.971.148,2.975,2.975,0,0,0-2,2.143,3.269,3.269,0,0,0-.073,1.13.108.108,0,0,1-.028.087.114.114,0,0,1-.085.038h-.01A8.048,8.048,0,0,1,92.794,69.9h0a.16.16,0,0,0-.261.022h0a3.072,3.072,0,0,0,.5,3.73,2.693,2.693,0,0,1-.7-.271h0a.16.16,0,0,0-.237.138h0a3.071,3.071,0,0,0,1.793,2.831h-.067A2.7,2.7,0,0,1,93.3,76.3h0a.161.161,0,0,0-.182.208h0A3.074,3.074,0,0,0,95.55,78.6a5.662,5.662,0,0,1-3.172.964h-.356a.235.235,0,0,0-.23.176.243.243,0,0,0,.117.269,8.428,8.428,0,0,0,4.232,1.142,8.541,8.541,0,0,0,3.617-.768,8.016,8.016,0,0,0,2.647-1.983,8.7,8.7,0,0,0,1.62-2.715,8.567,8.567,0,0,0,.55-2.97V72.67a.522.522,0,0,1,.2-.406,6.1,6.1,0,0,0,1.221-1.339h0a.161.161,0,0,0-.2-.235Z" transform="translate(-85.229 -61.558)" fill="#fff"/>
  </g>
</svg>
